<?xml version="1.0" encoding="utf-8"?>
<!-- Generator: Adobe Illustrator 16.0.0, SVG Export Plug-In . SVG Version: 6.00 Build 0)  -->
<!DOCTYPE svg PUBLIC "-//W3C//DTD SVG 1.1//EN" "http://www.w3.org/Graphics/SVG/1.1/DTD/svg11.dtd">
<svg version="1.1" id="Capa_1" xmlns="http://www.w3.org/2000/svg" xmlns:xlink="http://www.w3.org/1999/xlink" x="0px" y="0px"
	 width="233.945px" height="54.128px" viewBox="0 0 233.945 54.128" enable-background="new 0 0 233.945 54.128"
	 xml:space="preserve">
<g>
	<path fill="#FFFFFF" d="M23.61,22.577c0,1.557-0.559,3.059-1.678,4.506c-0.592,0.746-1.475,1.354-2.647,1.825
		c-1.173,0.473-2.56,0.708-4.161,0.708h-3.486v8.979H6.014V15.505h9.11c2.675,0,4.758,0.691,6.249,2.072S23.61,20.625,23.61,22.577z
		 M11.638,25.339h3.486c0.855,0,1.529-0.251,2.023-0.756c0.493-0.504,0.74-1.167,0.74-1.99s-0.252-1.497-0.756-2.023
		c-0.504-0.526-1.173-0.789-2.006-0.789h-3.486V25.339z"/>
	<path fill="#FFFFFF" d="M40.975,15.44v4.275h-8.354v4.966h7.368v4.276h-7.368v5.361h8.354v4.275H26.997V15.44H40.975z"/>
	<path fill="#FFFFFF" d="M51.434,29.616v8.979H45.81V15.505h9.11c2.675,0,4.758,0.691,6.249,2.072s2.237,3.048,2.237,4.999
		c0,1.338-0.406,2.643-1.217,3.914s-2.138,2.171-3.979,2.697l5.657,9.406h-6.578l-5.197-8.979H51.434z M51.434,19.781v5.558h3.486
		c0.855,0,1.529-0.251,2.023-0.756c0.493-0.504,0.74-1.167,0.74-1.99s-0.252-1.497-0.756-2.023
		c-0.504-0.526-1.173-0.789-2.006-0.789H51.434z"/>
	<path fill="#FFFFFF" d="M75.608,19.617c-0.702,0-1.277,0.187-1.727,0.559c-0.45,0.373-0.674,0.91-0.674,1.612
		s0.208,1.266,0.625,1.694c0.416,0.427,0.959,0.756,1.628,0.986c0.668,0.23,1.415,0.45,2.237,0.658
		c0.822,0.208,1.639,0.46,2.45,0.756c0.811,0.296,1.551,0.664,2.22,1.102c0.669,0.439,1.211,1.059,1.628,1.858
		c0.416,0.801,0.625,1.76,0.625,2.878c0,1.952-0.795,3.624-2.384,5.016c-1.59,1.393-3.684,2.089-6.282,2.089
		c-2.599,0-4.693-0.625-6.282-1.875c-1.59-1.25-2.384-3.025-2.384-5.328h5.986c0.153,1.842,1.096,2.763,2.829,2.763
		c0.811,0,1.447-0.214,1.907-0.642s0.691-0.97,0.691-1.628c0-0.657-0.208-1.194-0.625-1.611c-0.417-0.416-0.959-0.745-1.628-0.986
		c-0.669-0.241-1.415-0.466-2.237-0.675c-0.822-0.208-1.639-0.466-2.45-0.772c-0.812-0.308-1.551-0.675-2.22-1.103
		c-0.669-0.427-1.212-1.041-1.628-1.841s-0.625-1.749-0.625-2.845c0-2.148,0.8-3.87,2.401-5.164c1.6-1.293,3.645-1.94,6.134-1.94
		c2.488,0,4.5,0.564,6.035,1.694s2.335,2.911,2.401,5.344h-6.118c-0.088-0.833-0.357-1.474-0.806-1.924
		C76.885,19.842,76.31,19.617,75.608,19.617z"/>
	<path fill="#FFFFFF" d="M106.656,22.577c0,1.557-0.559,3.059-1.678,4.506c-0.592,0.746-1.475,1.354-2.647,1.825
		c-1.173,0.473-2.56,0.708-4.161,0.708h-3.486v8.979H89.06V15.505h9.11c2.675,0,4.758,0.691,6.249,2.072
		S106.656,20.625,106.656,22.577z M94.684,25.339h3.486c0.855,0,1.529-0.251,2.023-0.756c0.493-0.504,0.74-1.167,0.74-1.99
		s-0.252-1.497-0.756-2.023c-0.504-0.526-1.173-0.789-2.006-0.789h-3.486V25.339z"/>
	<path fill="#FFFFFF" d="M124.021,15.44v4.275h-8.354v4.966h7.368v4.276h-7.368v5.361h8.354v4.275h-13.978V15.44H124.021z"/>
	<path fill="#FFFFFF" d="M130.945,35.454c-2.292-2.226-3.438-5.049-3.438-8.47c0-3.42,1.146-6.243,3.438-8.469
		c2.291-2.226,5.092-3.338,8.403-3.338c2.565,0,4.846,0.68,6.841,2.039c1.995,1.36,3.388,3.245,4.177,5.657h-6.709
		c-0.878-1.688-2.281-2.533-4.21-2.533c-1.93,0-3.448,0.604-4.556,1.809c-1.107,1.206-1.661,2.817-1.661,4.834
		c0,2.018,0.554,3.63,1.661,4.835c1.107,1.206,2.626,1.809,4.556,1.809c1.929,0,3.332-0.844,4.21-2.532h6.709
		c-0.789,2.412-2.182,4.298-4.177,5.657s-4.275,2.039-6.841,2.039C136.037,38.792,133.236,37.679,130.945,35.454z"/>
	<path fill="#FFFFFF" d="M152.404,19.781v-4.276h18.222v4.276h-6.315v18.813h-5.624V19.781H152.404z"/>
	<path fill="#FFFFFF" d="M173.98,38.594V15.505h5.624v23.089H173.98z"/>
	<path fill="#FFFFFF" d="M190.491,38.594l-8.189-23.089h5.985l5.724,17.597l5.723-17.597h5.985l-8.189,23.089H190.491z"/>
	<path fill="#FFFFFF" d="M223.085,38.594l-1.283-3.881h-8.288l-1.282,3.881h-5.986l8.025-23.154h6.841l7.992,23.154H223.085z
		 M214.927,30.438h5.46l-2.729-8.223L214.927,30.438z"/>
</g>
<rect x="5.918" y="8.771" fill="#FFFFFF" width="117.94" height="3.559"/>
<rect x="110.132" y="41.814" fill="#FFFFFF" width="118.956" height="3.559"/>
</svg>
